<svg xmlns="http://www.w3.org/2000/svg" width="23" height="23" viewBox="0 0 23 23">
    <g fill="#FFF" fill-rule="evenodd">
        <path d="M7.35.067c4.022 0 7.283 3.26 7.283 7.283 0 4.022-3.26 7.283-7.283 7.283-4.022 0-7.283-3.26-7.283-7.283C.067 3.328 3.327.067 7.35.067zm0 1.533C4.174 1.6 1.6 4.174 1.6 7.35s2.574 5.75 5.75 5.75 5.75-2.574 5.75-5.75S10.526 1.6 7.35 1.6z" transform="translate(3 3)"/>
        <path d="M11.54 11.923c-.45.449-.45 1.177 0 1.626l3.252 3.253c.45.449 1.177.449 1.626 0 .45-.45.45-1.177 0-1.627l-3.252-3.252c-.45-.45-1.177-.45-1.627 0z" transform="translate(3 3)"/>
    </g>
</svg>
